PathFileType	4	(X/Y/Z)	/Users/itak/Documents/Research/Walk-IL/dataset/trc/00201_00008.trc
DataRate	CameraRate	NumFrames	NumMarkers	Units	OrigDataRate	OrigDataStartFrame	OrigNumFrames
100.000000	100.000000	4	54	mm	100.000000	425	567
Frame#	Time	RPSI			LPSI			L3			STRN			T10			C7			CLAV			RBAK			LBAK			LSHO			LUPA			LAEL			LAOL			LWTS			LWPS			LFRA			LIFD			LHPS			LHTS			RSHO			RUPA			RAEL			RAOL			RWTS			RWPS			RFRA			RIFD			RHTS			RHPS			RBHD			LFHD			RFHD			LBHD			LHIP			RASI			LASI			LKNE			LTHI			LANK			LTIP			LTOE			LMT1			LMT5			LHEE			RKNE			RTHI			RANK			RTIP			RTOE			RMT1			RMT5			RHEE			RHIP			*53			
		X1	Y1	Z1	X2	Y2	Z2	X3	Y3	Z3	X4	Y4	Z4	X5	Y5	Z5	X6	Y6	Z6	X7	Y7	Z7	X8	Y8	Z8	X9	Y9	Z9	X10	Y10	Z10	X11	Y11	Z11	X12	Y12	Z12	X13	Y13	Z13	X14	Y14	Z14	X15	Y15	Z15	X16	Y16	Z16	X17	Y17	Z17	X18	Y18	Z18	X19	Y19	Z19	X20	Y20	Z20	X21	Y21	Z21	X22	Y22	Z22	X23	Y23	Z23	X24	Y24	Z24	X25	Y25	Z25	X26	Y26	Z26	X27	Y27	Z27	X28	Y28	Z28	X29	Y29	Z29	X30	Y30	Z30	X31	Y31	Z31	X32	Y32	Z32	X33	Y33	Z33	X34	Y34	Z34	X35	Y35	Z35	X36	Y36	Z36	X37	Y37	Z37	X38	Y38	Z38	X39	Y39	Z39	X40	Y40	Z40	X41	Y41	Z41	X42	Y42	Z42	X43	Y43	Z43	X44	Y44	Z44	X45	Y45	Z45	X46	Y46	Z46	X47	Y47	Z47	X48	Y48	Z48	X49	Y49	Z49	X50	Y50	Z50	X51	Y51	Z51	X52	Y52	Z52	X53	Y53	Z53	X54	Y54	Z54	

426	4.25	430.9710083007812	1032.847900390625	513.1461791992188	553.266357421875	1031.555053710938	511.0000915527344	484.8155822753906	1063.104248046875	509.6198425292969	516.85693359375	1296.828002929688	750.268798828125	474.5648803710938	1215.959716796875	460.0477294921875	490.8564758300781	1490.242919921875	500.8677673339844	521.752197265625	1407.2255859375	709.261474609375	374.9626159667969	1311.756713867188	466.1150207519531	588.749755859375	1464.874633789062	478.9126892089844	679.1935424804688	1459.571411132812	540.5795288085938	743.1165771484375	1326.067138671875	498.8134765625	763.633544921875	1111.527587890625	508.4462585449219	676.9683837890625	1092.602905273438	494.5190734863281	786.6592407226562	878.7268676757812	620.3472900390625	790.6123046875	859.9242553710938	528.615478515625	784.3177490234375	1002.069213867188	515.0537719726562	772.6129760742188	692.7806396484375	636.2114868164062	797.2900390625	790.3308715820312	547.9603881835938	810.3177490234375	799.324462890625	619.7855224609375	323.3582458496094	1477.102294921875	593.9129638671875	251.6942901611328	1411.380004882812	588.9675903320312	193.4849395751953	1125.125732421875	588.7786254882812	290.2765502929688	1113.595458984375	577.064208984375	213.475830078125	900.6558227539062	733.0557250976562	159.5907897949219	885.3048706054688	661.494384765625	173.6068267822266	1054.956176757812	617.0868530273438	228.6796875	707.3936157226562	741.5314331054688	203.6078948974609	805.2138671875	757.9867553710938	160.2970428466797	802.9737548828125	689.7150268554688	429.9146728515625	1659.412231445312	551.3973388671875	585.1583251953125	1718.62548828125	693.2413330078125	458.5236511230469	1718.531005859375	714.7567138671875	564.7533569335938	1666.99462890625	521.6505737304688	682.893798828125	983.5521850585938	617.4508056640625	366.6339721679688	1031.854858398438	752.5424194335938	623.8707275390625	1030.4228515625	738.1253662109375	672.509765625	513.3134155273438	812.189208984375	694.2742309570312	647.9019165039062	759.5633544921875	703.8060913085938	37.94424057006836	824.5662231445312	699.5236206054688	283.8544006347656	829.2367553710938	670.0525512695312	52.88240432739258	1040.008544921875	625.28515625	50.74264526367188	991.03466796875	736.6844482421875	35.60118865966797	933.0809936523438	636.8632202148438	40.73412322998047	772.2345581054688	305.2830200195312	495.4219360351562	623.7247314453125	299.5693969726562	761.4288940429688	701.2081298828125	281.6348571777344	145.2351531982422	257.6963195800781	312.0228881835938	376.5722351074219	568.2713623046875	359.3124389648438	36.04116821289062	403.252197265625	390.0771484375	52.13458633422852	356.3982849121094	266.2663879394531	60.25542449951172	336.1942138671875	342.9958801269531	189.7409515380859	219.6041564941406	308.8692932128906	997.785888671875	673.809326171875	nan	nan	nan	
427	4.26	437.1253356933594	1034.467041015625	520.1735229492188	559.490234375	1033.639038085938	519.5117797851562	491.1513366699219	1065.224853515625	517.3282470703125	520.8078002929688	1298.641845703125	758.8982543945312	481.4583740234375	1218.350830078125	468.1212463378906	497.0375061035156	1492.546142578125	509.5693359375	525.9204711914062	1409.1259765625	718.2034301757812	381.5584716796875	1313.985595703125	473.5489807128906	595.1442260742188	1467.318725585938	488.7227172851562	684.9659423828125	1462.205444335938	551.345458984375	749.6759643554688	1328.940185546875	510.1787414550781	770.2470703125	1114.330444335938	519.9506225585938	683.8086547851562	1095.354248046875	504.6908569335938	791.7293701171875	881.3477783203125	631.890869140625	797.0355834960938	862.7048950195312	540.1921997070312	790.9153442382812	1004.856567382812	526.7488403320312	776.6543579101562	695.1898193359375	646.9710693359375	803.2599487304688	793.030029296875	559.4583129882812	815.0003662109375	801.7467041015625	631.531982421875	328.7200622558594	1479.051879882812	601.1353759765625	257.0874328613281	1413.387573242188	595.5283813476562	198.2484283447266	1127.363159179688	594.3010864257812	295.1771545410156	1115.702758789062	583.52001953125	216.3694915771484	902.7205810546875	738.6311645507812	163.3177795410156	887.4842529296875	666.4273681640625	177.947265625	1057.200927734375	622.2903442382812	231.496337890625	709.406005859375	746.9883422851562	206.1945648193359	807.2161865234375	763.3201293945312	163.6592864990234	804.975830078125	694.5146484375	435.000732421875	1660.902099609375	558.3853759765625	589.1106567382812	1721.48779296875	700.872802734375	462.324462890625	1721.398681640625	721.3766479492188	570.0285034179688	1668.42333984375	529.5520629882812	688.0097045898438	985.3053588867188	626.9038696289062	370.6092834472656	1033.7080078125	758.83251953125	628.1292724609375	1031.995483398438	747.0557861328125	674.9553833007812	513.4908447265625	817.5228881835938	697.6189575195312	648.3129272460938	765.7325439453125	703.9487915039062	38.06439590454102	825.033447265625	700.9054565429688	283.6487426757812	832.3380737304688	670.1358642578125	50.76507949829102	1040.939208984375	625.1616821289062	49.94690322875977	991.6937866210938	737.0060424804688	35.16463088989258	933.5855712890625	637.1588745117188	41.01318359375	772.6560668945312	307.2297668457031	496.0773620605469	637.6408081054688	302.712646484375	763.4364624023438	709.3753051757812	288.0223388671875	153.7808837890625	265.3547058105469	313.5473022460938	378.0246276855469	581.2550659179688	358.744384765625	35.18228530883789	407.3552551269531	391.5264587402344	54.15771102905273	362.8327941894531	269.1358642578125	65.22628021240234	338.7530517578125	351.2343139648438	198.4309387207031	230.9766693115234	313.0723571777344	999.5662231445312	679.8816528320312	nan	nan	nan	
428	4.27	443.1618347167969	1035.9658203125	526.9943237304688	565.5995483398438	1035.6396484375	527.7576293945312	497.4090576171875	1067.262329101562	524.804931640625	524.5107421875	1300.225463867188	767.3703002929688	488.3630981445312	1220.698974609375	475.9864501953125	503.1536254882812	1494.804077148438	518.1987915039062	529.8618774414062	1410.81640625	727.0669555664062	388.1596984863281	1316.108520507812	480.7297973632812	601.48388671875	1469.698852539062	498.5585021972656	690.6161499023438	1464.696166992188	562.212646484375	756.161865234375	1331.711059570312	521.6110229492188	776.9530639648438	1117.018798828125	531.403076171875	690.82177734375	1097.95068359375	514.5800170898438	796.7792358398438	883.9653930664062	643.5543823242188	803.6066284179688	865.3594970703125	551.956787109375	797.6287231445312	1007.505554199219	538.4719848632812	781.0485229492188	697.6875	658.175048828125	809.4441528320312	795.64892578125	571.2618408203125	819.8173828125	804.2621459960938	643.55126953125	333.9202880859375	1480.81201171875	608.150390625	262.3682861328125	1415.1513671875	601.8187866210938	202.8096923828125	1129.346557617188	599.7349853515625	299.8237915039062	1117.5439453125	589.733642578125	219.4898834228516	904.766845703125	744.3583374023438	167.0834655761719	889.482421875	671.6756591796875	182.177001953125	1059.19287109375	627.51708984375	234.6773834228516	711.4474487304688	752.9235229492188	209.1722869873047	809.2630004882812	769.0302734375	167.2224578857422	806.8403930664062	699.7757568359375	439.9490966796875	1662.271362304688	565.36962890625	592.9688720703125	1724.20166015625	708.4412231445312	466.03759765625	1724.154663085938	727.968505859375	575.1558227539062	1669.706787109375	537.41943359375	692.90380859375	986.8833618164062	636.1756591796875	374.4142456054688	1035.330932617188	764.853759765625	632.2320556640625	1033.311401367188	755.798583984375	677.2388916015625	513.561767578125	822.45556640625	700.66845703125	648.516357421875	771.4957275390625	704.0180053710938	38.18805694580078	825.4533081054688	702.136962890625	283.3946533203125	835.0706176757812	670.2001342773438	49.01490020751953	1041.757080078125	624.9634399414062	49.33103179931641	992.278076171875	737.248291015625	34.82669448852539	934.0073852539062	637.3576049804688	41.22758483886719	773.0428466796875	309.4096374511719	496.7034606933594	651.8358764648438	305.8168640136719	765.3417358398438	717.4508666992188	294.7681579589844	162.3831481933594	273.6942443847656	315.5713500976562	379.4810485839844	594.6288452148438	357.6109008789062	34.48162460327148	412.8677368164062	392.6346740722656	56.61683654785156	370.5859985351562	272.0929565429688	70.91721343994141	342.1422119140625	359.7967224121094	206.6808319091797	242.8307952880859	317.2373352050781	1001.180725097656	685.560546875	nan	nan	nan	
429	4.28	449.0452270507812	1037.351684570312	533.644775390625	571.557373046875	1037.550903320312	535.71240234375	503.5523071289062	1069.208740234375	532.0549926757812	527.9537353515625	1301.588012695312	775.6638793945312	495.2462158203125	1222.983642578125	483.6517028808594	509.1918640136719	1496.995361328125	526.734130859375	533.578125	1412.3056640625	735.8220825195312	394.7509155273438	1318.1240234375	487.6501770019531	607.7535400390625	1471.996337890625	508.392822265625	696.1302490234375	1467.029541015625	573.1469116210938	762.5623168945312	1334.363403320312	533.097412109375	783.737060546875	1119.58056640625	542.8218994140625	698.0089721679688	1100.383544921875	524.2018432617188	801.7902221679688	886.5610961914062	655.3314819335938	810.3244018554688	867.8818969726562	563.9116821289062	804.447265625	1010.011352539062	550.2393798828125	785.7999267578125	700.250732421875	669.806884765625	815.8451538085938	798.18115234375	583.369384765625	824.7610473632812	806.854736328125	655.8392333984375	338.9544982910156	1482.385498046875	614.9361572265625	267.5367126464844	1416.680297851562	607.8167114257812	207.2140655517578	1131.075561523438	605.0458374023438	304.2767333984375	1119.119873046875	595.7174072265625	222.8254699707031	906.7901611328125	750.2217407226562	170.8838653564453	891.3048095703125	677.2111206054688	186.3262023925781	1060.932739257812	632.734130859375	238.1611938476562	713.5192260742188	759.3447875976562	212.4902496337891	811.350830078125	775.1029052734375	170.9417419433594	808.586669921875	705.4716186523438	444.7650146484375	1663.519775390625	572.342041015625	596.7337036132812	1726.755004882812	715.9493408203125	469.6596069335938	1726.788696289062	734.5308227539062	580.1397094726562	1670.844970703125	545.2491455078125	697.5546264648438	988.3114624023438	645.2523803710938	378.0414733886719	1036.735595703125	770.6234741210938	636.1588134765625	1034.407958984375	764.3374633789062	679.3790283203125	513.5528564453125	827.0626220703125	703.44287109375	648.614501953125	776.9900512695312	704.0204467773438	38.30948257446289	825.813720703125	703.2516479492188	283.1021118164062	837.4937133789062	670.2562255859375	47.61957931518555	1042.440551757812	624.7240600585938	48.84188079833984	992.7793579101562	737.4279174804688	34.56388092041016	934.3319091796875	637.4685668945312	41.39579391479492	773.3853149414062	311.8254699707031	497.3289794921875	666.236328125	308.9318542480469	767.1529541015625	725.4765625	301.82763671875	170.8101959228516	282.7372436523438	318.0853271484375	380.9443054199219	608.3121948242188	355.8560485839844	34.16262435913086	419.9562072753906	393.3600769042969	59.44368743896484	379.7848205566406	275.0932006835938	77.21431732177734	346.6266174316406	368.6228637695312	214.2452392578125	255.083740234375	321.3573303222656	1002.611633300781	690.86669921875	nan	nan	nan	
